<mxfile host="app.diagrams.net" agent="Mozilla/5.0 (Macintosh; Intel Mac OS X 10_15_7) AppleWebKit/537.36 (KHTML, like Gecko) Chrome/130.0.0.0 Safari/537.36" version="24.8.3" pages="2">
  <diagram name="爆款文案创作" id="CfXgHulgrl398tVQMiPT">
    <mxGraphModel dx="1194" dy="10581" grid="1" gridSize="10" guides="1" tooltips="1" connect="1" arrows="1" fold="1" page="1" pageScale="1" pageWidth="10000" pageHeight="10000" math="0" shadow="0">
      <root>
        <mxCell id="0" />
        <mxCell id="1" parent="0" />
        <mxCell id="UBGSCW1cdk8pY7iaA39e-1" value="" style="rounded=0;whiteSpace=wrap;html=1;dashed=1;" vertex="1" parent="1">
          <mxGeometry x="1180" y="390" width="360" height="300" as="geometry" />
        </mxCell>
        <mxCell id="UBGSCW1cdk8pY7iaA39e-2" value="&lt;h1&gt;小红书账号运营探索&lt;/h1&gt;&lt;p&gt;帮助个人打造小红书账号&lt;/p&gt;&lt;p&gt;引流到社媒相关产品,e.g. socialX&lt;/p&gt;" style="text;html=1;strokeColor=none;fillColor=none;spacing=5;spacingTop=-20;whiteSpace=wrap;overflow=hidden;rounded=0;" vertex="1" parent="1">
          <mxGeometry x="430" y="-90" width="390" height="180" as="geometry" />
        </mxCell>
        <mxCell id="UBGSCW1cdk8pY7iaA39e-3" style="edgeStyle=orthogonalEdgeStyle;rounded=0;orthogonalLoop=1;jettySize=auto;html=1;" edge="1" parent="1" source="UBGSCW1cdk8pY7iaA39e-4">
          <mxGeometry relative="1" as="geometry">
            <mxPoint x="600" y="370" as="targetPoint" />
          </mxGeometry>
        </mxCell>
        <mxCell id="UBGSCW1cdk8pY7iaA39e-4" value="Actor" style="shape=umlActor;verticalLabelPosition=bottom;verticalAlign=top;html=1;outlineConnect=0;" vertex="1" parent="1">
          <mxGeometry x="480" y="340" width="30" height="60" as="geometry" />
        </mxCell>
        <mxCell id="UBGSCW1cdk8pY7iaA39e-5" value="" style="edgeStyle=orthogonalEdgeStyle;rounded=0;orthogonalLoop=1;jettySize=auto;html=1;exitX=0.5;exitY=1;exitDx=0;exitDy=0;dashed=1;" edge="1" parent="1" source="UBGSCW1cdk8pY7iaA39e-7" target="UBGSCW1cdk8pY7iaA39e-9">
          <mxGeometry relative="1" as="geometry">
            <Array as="points">
              <mxPoint x="660" y="500" />
            </Array>
          </mxGeometry>
        </mxCell>
        <mxCell id="UBGSCW1cdk8pY7iaA39e-6" style="edgeStyle=orthogonalEdgeStyle;rounded=0;orthogonalLoop=1;jettySize=auto;html=1;entryX=0;entryY=0.5;entryDx=0;entryDy=0;entryPerimeter=0;" edge="1" parent="1" source="UBGSCW1cdk8pY7iaA39e-7" target="UBGSCW1cdk8pY7iaA39e-39">
          <mxGeometry relative="1" as="geometry" />
        </mxCell>
        <mxCell id="UBGSCW1cdk8pY7iaA39e-7" value="导入素材" style="rounded=0;whiteSpace=wrap;html=1;" vertex="1" parent="1">
          <mxGeometry x="600" y="340" width="120" height="60" as="geometry" />
        </mxCell>
        <mxCell id="UBGSCW1cdk8pY7iaA39e-8" value="" style="edgeStyle=orthogonalEdgeStyle;rounded=0;orthogonalLoop=1;jettySize=auto;html=1;" edge="1" parent="1" source="UBGSCW1cdk8pY7iaA39e-9" target="UBGSCW1cdk8pY7iaA39e-12">
          <mxGeometry relative="1" as="geometry" />
        </mxCell>
        <mxCell id="UBGSCW1cdk8pY7iaA39e-9" value="标签处理" style="whiteSpace=wrap;html=1;rounded=0;" vertex="1" parent="1">
          <mxGeometry x="800" y="470" width="120" height="60" as="geometry" />
        </mxCell>
        <mxCell id="UBGSCW1cdk8pY7iaA39e-10" value="1.赛道分类&lt;br&gt;2.话题标签" style="text;html=1;strokeColor=none;fillColor=none;align=center;verticalAlign=middle;whiteSpace=wrap;rounded=0;" vertex="1" parent="1">
          <mxGeometry x="830" y="560" width="60" height="30" as="geometry" />
        </mxCell>
        <mxCell id="UBGSCW1cdk8pY7iaA39e-11" value="" style="edgeStyle=orthogonalEdgeStyle;rounded=0;orthogonalLoop=1;jettySize=auto;html=1;" edge="1" parent="1" source="UBGSCW1cdk8pY7iaA39e-12" target="UBGSCW1cdk8pY7iaA39e-14">
          <mxGeometry relative="1" as="geometry" />
        </mxCell>
        <mxCell id="UBGSCW1cdk8pY7iaA39e-12" value="保存到对应的&lt;br&gt;Spaces" style="whiteSpace=wrap;html=1;rounded=0;" vertex="1" parent="1">
          <mxGeometry x="1000" y="470" width="120" height="60" as="geometry" />
        </mxCell>
        <mxCell id="UBGSCW1cdk8pY7iaA39e-13" value="" style="edgeStyle=orthogonalEdgeStyle;rounded=0;orthogonalLoop=1;jettySize=auto;html=1;" edge="1" parent="1" source="UBGSCW1cdk8pY7iaA39e-14" target="UBGSCW1cdk8pY7iaA39e-15">
          <mxGeometry relative="1" as="geometry" />
        </mxCell>
        <mxCell id="UBGSCW1cdk8pY7iaA39e-14" value="Meta info, &lt;br&gt;向量化?" style="whiteSpace=wrap;html=1;rounded=0;" vertex="1" parent="1">
          <mxGeometry x="1200" y="470" width="120" height="60" as="geometry" />
        </mxCell>
        <mxCell id="UBGSCW1cdk8pY7iaA39e-15" value="" style="shape=cylinder3;whiteSpace=wrap;html=1;boundedLbl=1;backgroundOutline=1;size=15;fontFamily=Helvetica;fontSize=12;fontColor=default;align=center;strokeColor=default;fillColor=default;" vertex="1" parent="1">
          <mxGeometry x="1400" y="470" width="120" height="60" as="geometry" />
        </mxCell>
        <mxCell id="UBGSCW1cdk8pY7iaA39e-16" value="" style="edgeStyle=orthogonalEdgeStyle;rounded=0;orthogonalLoop=1;jettySize=auto;html=1;" edge="1" parent="1" source="UBGSCW1cdk8pY7iaA39e-19" target="UBGSCW1cdk8pY7iaA39e-22">
          <mxGeometry relative="1" as="geometry">
            <Array as="points">
              <mxPoint x="1350" y="640" />
              <mxPoint x="1350" y="640" />
            </Array>
          </mxGeometry>
        </mxCell>
        <mxCell id="UBGSCW1cdk8pY7iaA39e-17" style="edgeStyle=orthogonalEdgeStyle;rounded=0;orthogonalLoop=1;jettySize=auto;html=1;entryX=0;entryY=0.5;entryDx=0;entryDy=0;" edge="1" parent="1" source="UBGSCW1cdk8pY7iaA39e-19" target="UBGSCW1cdk8pY7iaA39e-28">
          <mxGeometry relative="1" as="geometry" />
        </mxCell>
        <mxCell id="UBGSCW1cdk8pY7iaA39e-18" style="edgeStyle=orthogonalEdgeStyle;rounded=0;orthogonalLoop=1;jettySize=auto;html=1;entryX=0;entryY=0.5;entryDx=0;entryDy=0;" edge="1" parent="1" source="UBGSCW1cdk8pY7iaA39e-19" target="UBGSCW1cdk8pY7iaA39e-46">
          <mxGeometry relative="1" as="geometry" />
        </mxCell>
        <mxCell id="UBGSCW1cdk8pY7iaA39e-19" value="Actor" style="shape=umlActor;verticalLabelPosition=bottom;verticalAlign=top;html=1;outlineConnect=0;" vertex="1" parent="1">
          <mxGeometry x="1140" y="610" width="30" height="60" as="geometry" />
        </mxCell>
        <mxCell id="UBGSCW1cdk8pY7iaA39e-20" style="edgeStyle=orthogonalEdgeStyle;rounded=0;orthogonalLoop=1;jettySize=auto;html=1;entryX=0.5;entryY=1;entryDx=0;entryDy=0;entryPerimeter=0;" edge="1" parent="1" source="UBGSCW1cdk8pY7iaA39e-22" target="UBGSCW1cdk8pY7iaA39e-15">
          <mxGeometry relative="1" as="geometry" />
        </mxCell>
        <mxCell id="UBGSCW1cdk8pY7iaA39e-21" style="edgeStyle=orthogonalEdgeStyle;rounded=0;orthogonalLoop=1;jettySize=auto;html=1;" edge="1" parent="1" source="UBGSCW1cdk8pY7iaA39e-22" target="UBGSCW1cdk8pY7iaA39e-24">
          <mxGeometry relative="1" as="geometry" />
        </mxCell>
        <mxCell id="UBGSCW1cdk8pY7iaA39e-22" value="问答/创作" style="whiteSpace=wrap;html=1;verticalAlign=top;" vertex="1" parent="1">
          <mxGeometry x="1400" y="620" width="120" height="60" as="geometry" />
        </mxCell>
        <mxCell id="UBGSCW1cdk8pY7iaA39e-23" value="" style="edgeStyle=orthogonalEdgeStyle;rounded=0;orthogonalLoop=1;jettySize=auto;html=1;" edge="1" parent="1" source="UBGSCW1cdk8pY7iaA39e-24" target="UBGSCW1cdk8pY7iaA39e-26">
          <mxGeometry relative="1" as="geometry" />
        </mxCell>
        <mxCell id="UBGSCW1cdk8pY7iaA39e-24" value="生成 note" style="whiteSpace=wrap;html=1;verticalAlign=top;" vertex="1" parent="1">
          <mxGeometry x="1590" y="620" width="120" height="60" as="geometry" />
        </mxCell>
        <mxCell id="UBGSCW1cdk8pY7iaA39e-25" value="" style="edgeStyle=orthogonalEdgeStyle;rounded=0;orthogonalLoop=1;jettySize=auto;html=1;" edge="1" parent="1" source="UBGSCW1cdk8pY7iaA39e-26" target="UBGSCW1cdk8pY7iaA39e-30">
          <mxGeometry relative="1" as="geometry" />
        </mxCell>
        <mxCell id="UBGSCW1cdk8pY7iaA39e-26" value="生成小红书贴子&lt;br&gt;封面图,&lt;br&gt;标题,内容&lt;br&gt;打话题" style="whiteSpace=wrap;html=1;verticalAlign=top;" vertex="1" parent="1">
          <mxGeometry x="1790" y="620" width="120" height="60" as="geometry" />
        </mxCell>
        <mxCell id="UBGSCW1cdk8pY7iaA39e-27" style="edgeStyle=orthogonalEdgeStyle;rounded=0;orthogonalLoop=1;jettySize=auto;html=1;entryX=0;entryY=0.75;entryDx=0;entryDy=0;" edge="1" parent="1" source="UBGSCW1cdk8pY7iaA39e-28" target="UBGSCW1cdk8pY7iaA39e-24">
          <mxGeometry relative="1" as="geometry" />
        </mxCell>
        <mxCell id="UBGSCW1cdk8pY7iaA39e-28" value="待发布内容" style="rounded=0;whiteSpace=wrap;html=1;" vertex="1" parent="1">
          <mxGeometry x="1400" y="715" width="120" height="60" as="geometry" />
        </mxCell>
        <mxCell id="UBGSCW1cdk8pY7iaA39e-29" value="" style="edgeStyle=orthogonalEdgeStyle;rounded=0;orthogonalLoop=1;jettySize=auto;html=1;" edge="1" parent="1" source="UBGSCW1cdk8pY7iaA39e-30" target="UBGSCW1cdk8pY7iaA39e-41">
          <mxGeometry relative="1" as="geometry" />
        </mxCell>
        <mxCell id="UBGSCW1cdk8pY7iaA39e-30" value="发布&lt;br&gt;小红书" style="whiteSpace=wrap;html=1;verticalAlign=top;" vertex="1" parent="1">
          <mxGeometry x="2060" y="620" width="120" height="60" as="geometry" />
        </mxCell>
        <mxCell id="UBGSCW1cdk8pY7iaA39e-31" value="小红书的&lt;br&gt;system角色" style="text;html=1;strokeColor=none;fillColor=none;align=center;verticalAlign=middle;whiteSpace=wrap;rounded=0;" vertex="1" parent="1">
          <mxGeometry x="1810" y="730" width="100" height="30" as="geometry" />
        </mxCell>
        <mxCell id="UBGSCW1cdk8pY7iaA39e-32" value="&lt;b&gt;RAG&lt;/b&gt;" style="text;html=1;strokeColor=none;fillColor=none;align=center;verticalAlign=middle;whiteSpace=wrap;rounded=0;" vertex="1" parent="1">
          <mxGeometry x="1350" y="410" width="60" height="30" as="geometry" />
        </mxCell>
        <mxCell id="UBGSCW1cdk8pY7iaA39e-33" value="插件能力" style="ellipse;whiteSpace=wrap;html=1;dashed=1;" vertex="1" parent="1">
          <mxGeometry x="1930" y="590" width="90" height="50" as="geometry" />
        </mxCell>
        <mxCell id="UBGSCW1cdk8pY7iaA39e-34" value="插件能力" style="ellipse;whiteSpace=wrap;html=1;dashed=1;" vertex="1" parent="1">
          <mxGeometry x="610" y="270" width="90" height="50" as="geometry" />
        </mxCell>
        <mxCell id="UBGSCW1cdk8pY7iaA39e-35" style="edgeStyle=orthogonalEdgeStyle;rounded=0;orthogonalLoop=1;jettySize=auto;html=1;" edge="1" parent="1" source="UBGSCW1cdk8pY7iaA39e-36" target="UBGSCW1cdk8pY7iaA39e-12">
          <mxGeometry relative="1" as="geometry" />
        </mxCell>
        <mxCell id="UBGSCW1cdk8pY7iaA39e-36" value="一键导入爆文包" style="rounded=0;whiteSpace=wrap;html=1;fillColor=#f8cecc;strokeColor=#b85450;" vertex="1" parent="1">
          <mxGeometry x="800" y="610" width="120" height="60" as="geometry" />
        </mxCell>
        <mxCell id="UBGSCW1cdk8pY7iaA39e-37" style="edgeStyle=orthogonalEdgeStyle;rounded=0;orthogonalLoop=1;jettySize=auto;html=1;entryX=0.5;entryY=1;entryDx=0;entryDy=0;" edge="1" parent="1" source="UBGSCW1cdk8pY7iaA39e-38" target="UBGSCW1cdk8pY7iaA39e-36">
          <mxGeometry relative="1" as="geometry" />
        </mxCell>
        <mxCell id="UBGSCW1cdk8pY7iaA39e-38" value="社媒库" style="shape=cylinder3;whiteSpace=wrap;html=1;boundedLbl=1;backgroundOutline=1;size=15;dashed=1;" vertex="1" parent="1">
          <mxGeometry x="805" y="715" width="110" height="80" as="geometry" />
        </mxCell>
        <mxCell id="UBGSCW1cdk8pY7iaA39e-39" value="Raw DB" style="shape=cylinder3;whiteSpace=wrap;html=1;boundedLbl=1;backgroundOutline=1;size=15;" vertex="1" parent="1">
          <mxGeometry x="812.5" y="340" width="95" height="60" as="geometry" />
        </mxCell>
        <mxCell id="UBGSCW1cdk8pY7iaA39e-40" style="edgeStyle=orthogonalEdgeStyle;rounded=0;orthogonalLoop=1;jettySize=auto;html=1;" edge="1" parent="1" source="UBGSCW1cdk8pY7iaA39e-41">
          <mxGeometry relative="1" as="geometry">
            <mxPoint x="1310" y="230" as="targetPoint" />
          </mxGeometry>
        </mxCell>
        <mxCell id="UBGSCW1cdk8pY7iaA39e-41" value="" style="shape=cylinder3;whiteSpace=wrap;html=1;boundedLbl=1;backgroundOutline=1;size=15;fontFamily=Helvetica;fontSize=12;fontColor=default;align=center;strokeColor=default;fillColor=default;dashed=1;" vertex="1" parent="1">
          <mxGeometry x="2220" y="200" width="120" height="60" as="geometry" />
        </mxCell>
        <mxCell id="UBGSCW1cdk8pY7iaA39e-42" value="&lt;h1&gt;few-shot&lt;/h1&gt;&lt;p&gt;0. 选择符合条件的 100 条参考帖子,&amp;nbsp; &amp;nbsp; tag 过滤 + 向量索引&amp;nbsp;&lt;/p&gt;&lt;p&gt;1.按token 上限&lt;span style=&quot;background-color: initial;&quot;&gt;(e.g.&amp;nbsp; 10条一组),&amp;nbsp; 生成 10(100/10) 条仿写帖子&lt;/span&gt;&lt;/p&gt;&lt;p&gt;&lt;span style=&quot;background-color: initial;&quot;&gt;2. 有一个评估 agent 评估 打分&lt;/span&gt;&lt;/p&gt;&lt;p&gt;&lt;span style=&quot;background-color: initial;&quot;&gt;3. 给出 4 条让用户选择(额外功能 可加正负反馈)&lt;/span&gt;&lt;/p&gt;&lt;p&gt;&lt;span style=&quot;background-color: initial;&quot;&gt;&lt;br&gt;&lt;/span&gt;&lt;/p&gt;" style="text;html=1;strokeColor=none;fillColor=none;spacing=5;spacingTop=-20;whiteSpace=wrap;overflow=hidden;rounded=0;" vertex="1" parent="1">
          <mxGeometry x="1211" y="870" width="329" height="180" as="geometry" />
        </mxCell>
        <mxCell id="UBGSCW1cdk8pY7iaA39e-43" value="&lt;h1&gt;智能写作-小红书文案生成器&lt;/h1&gt;&lt;p&gt;1.标题生成,&lt;/p&gt;&lt;p&gt;2. 描述生成&lt;/p&gt;&lt;p&gt;3. 话题列表生成&amp;nbsp;&lt;/p&gt;&lt;p&gt;4.&amp;nbsp; 封面图生成,其它图片生成&lt;/p&gt;&lt;p&gt;5.&amp;nbsp; 适配小红书的样式/模板生成&lt;/p&gt;" style="text;html=1;strokeColor=none;fillColor=none;spacing=5;spacingTop=-20;whiteSpace=wrap;overflow=hidden;rounded=0;" vertex="1" parent="1">
          <mxGeometry x="1620" y="850" width="370" height="180" as="geometry" />
        </mxCell>
        <mxCell id="UBGSCW1cdk8pY7iaA39e-44" style="edgeStyle=orthogonalEdgeStyle;rounded=0;orthogonalLoop=1;jettySize=auto;html=1;entryX=0;entryY=0.25;entryDx=0;entryDy=0;fillColor=#f8cecc;strokeColor=#b85450;" edge="1" parent="1" source="UBGSCW1cdk8pY7iaA39e-46" target="UBGSCW1cdk8pY7iaA39e-24">
          <mxGeometry relative="1" as="geometry" />
        </mxCell>
        <mxCell id="UBGSCW1cdk8pY7iaA39e-45" style="edgeStyle=orthogonalEdgeStyle;rounded=0;orthogonalLoop=1;jettySize=auto;html=1;entryX=0;entryY=0.75;entryDx=0;entryDy=0;fillColor=#f8cecc;strokeColor=#b85450;" edge="1" parent="1" source="UBGSCW1cdk8pY7iaA39e-46" target="UBGSCW1cdk8pY7iaA39e-26">
          <mxGeometry relative="1" as="geometry">
            <Array as="points">
              <mxPoint x="1730" y="820" />
              <mxPoint x="1730" y="665" />
            </Array>
          </mxGeometry>
        </mxCell>
        <mxCell id="UBGSCW1cdk8pY7iaA39e-46" value="人设背景" style="rounded=0;whiteSpace=wrap;html=1;fillColor=#f8cecc;strokeColor=#b85450;" vertex="1" parent="1">
          <mxGeometry x="1400" y="790" width="120" height="60" as="geometry" />
        </mxCell>
        <mxCell id="UBGSCW1cdk8pY7iaA39e-47" value="" style="shape=curlyBracket;whiteSpace=wrap;html=1;rounded=1;flipH=1;labelPosition=right;verticalLabelPosition=middle;align=left;verticalAlign=middle;rotation=-90;" vertex="1" parent="1">
          <mxGeometry x="1193.75" y="106.25" width="127.5" height="435" as="geometry" />
        </mxCell>
        <mxCell id="UBGSCW1cdk8pY7iaA39e-48" value="" style="edgeStyle=orthogonalEdgeStyle;rounded=0;orthogonalLoop=1;jettySize=auto;html=1;" edge="1" parent="1" source="UBGSCW1cdk8pY7iaA39e-49" target="UBGSCW1cdk8pY7iaA39e-51">
          <mxGeometry relative="1" as="geometry" />
        </mxCell>
        <mxCell id="UBGSCW1cdk8pY7iaA39e-49" value="typesense" style="shape=cylinder3;whiteSpace=wrap;html=1;boundedLbl=1;backgroundOutline=1;size=15;" vertex="1" parent="1">
          <mxGeometry x="1210" y="200" width="95" height="60" as="geometry" />
        </mxCell>
        <mxCell id="UBGSCW1cdk8pY7iaA39e-50" value="&lt;h1&gt;ETL&lt;/h1&gt;&lt;div&gt;1. 保存素材内容&lt;/div&gt;&lt;div&gt;2. 通过 LLM 增加打标信息&lt;/div&gt;&lt;div&gt;3. 人工打标/确认?&lt;/div&gt;&lt;div&gt;4.将 2,3 的 meta信息关联入库&lt;/div&gt;" style="text;html=1;strokeColor=none;fillColor=none;spacing=5;spacingTop=-20;whiteSpace=wrap;overflow=hidden;rounded=0;" vertex="1" parent="1">
          <mxGeometry x="641" y="870" width="190" height="120" as="geometry" />
        </mxCell>
        <mxCell id="UBGSCW1cdk8pY7iaA39e-51" value="运营后台" style="whiteSpace=wrap;html=1;fillColor=#f8cecc;strokeColor=#b85450;" vertex="1" parent="1">
          <mxGeometry x="1197.5" y="60" width="120" height="60" as="geometry" />
        </mxCell>
      </root>
    </mxGraphModel>
  </diagram>
  <diagram name="人设设定" id="JWFBk7FRtC8jYPt6ZuAj">
    <mxGraphModel dx="1306" dy="854" grid="1" gridSize="10" guides="1" tooltips="1" connect="1" arrows="1" fold="1" page="1" pageScale="1" pageWidth="827" pageHeight="1169" math="0" shadow="0">
      <root>
        <mxCell id="0" />
        <mxCell id="1" parent="0" />
      </root>
    </mxGraphModel>
  </diagram>
</mxfile>
